<?xml version="1.0" encoding="UTF-8"?>
<svg id="katman_2" xmlns="http://www.w3.org/2000/svg" viewBox="0 0 320.68 320.68">
  <defs>
    <style>
      .cls-1 {
        fill: #ddbc66;
      }

      .cls-1, .cls-2, .cls-3, .cls-4 {
        fill-rule: evenodd;
      }

      .cls-2 {
        fill: #fff;
      }

      .cls-3 {
        fill: #000b3f;
      }

      .cls-4 {
        fill: #041440;
      }
    </style>
  </defs>
  <g id="OBJECTS">
    <g>
      <path class="cls-2" d="M160.34,315.57c85.5,0,155.23-69.73,155.23-155.23S245.84,5.11,160.34,5.11,5.11,74.84,5.11,160.34s69.73,155.23,155.23,155.23Z"/>
      <path class="cls-1" d="M160.34,310.04c82.45,0,149.7-67.25,149.7-149.7S242.79,10.65,160.34,10.65,10.65,77.89,10.65,160.34s67.25,149.7,149.7,149.7Z"/>
      <path class="cls-4" d="M160.34,0c44.28,0,84.36,17.95,113.38,46.96,29.02,29.02,46.96,69.1,46.96,113.38s-17.95,84.36-46.96,113.38c-29.02,29.02-69.1,46.96-113.38,46.96s-84.36-17.95-113.38-46.96C17.95,244.7,0,204.62,0,160.34S17.95,75.98,46.96,46.96C75.98,17.95,116.06,0,160.34,0h0ZM269.21,51.48C241.35,23.61,202.86,6.38,160.34,6.38S79.34,23.61,51.48,51.48C23.61,79.34,6.38,117.83,6.38,160.34s17.23,81,45.09,108.87c27.86,27.86,66.35,45.09,108.87,45.09s81-17.23,108.87-45.09c27.86-27.86,45.09-66.35,45.09-108.87s-17.23-81-45.09-108.87Z"/>
      <path class="cls-2" d="M160.34,269.63c60.19,0,109.29-49.09,109.29-109.28s-49.09-109.29-109.29-109.29-109.28,49.09-109.28,109.29,49.09,109.28,109.28,109.28Z"/>
      <path class="cls-4" d="M160.34,47.94c31.04,0,59.14,12.58,79.48,32.92,20.34,20.34,32.92,48.44,32.92,79.48s-12.58,59.14-32.92,79.48c-20.34,20.34-48.44,32.92-79.48,32.92s-59.14-12.58-79.48-32.92c-20.34-20.34-32.92-48.44-32.92-79.48s12.58-59.14,32.92-79.48c20.34-20.34,48.44-32.92,79.48-32.92h0ZM235.42,85.26c-19.21-19.21-45.76-31.1-75.08-31.1s-55.86,11.88-75.08,31.1c-19.21,19.21-31.1,45.76-31.1,75.08s11.88,55.86,31.1,75.08c19.21,19.21,45.76,31.1,75.08,31.1s55.86-11.88,75.08-31.1c19.21-19.21,31.1-45.76,31.1-75.08s-11.88-55.86-31.1-75.08Z"/>
      <path class="cls-1" d="M159.87,60.28c0-.26.21-.47.47-.47s.47.21.47.47v30.64l12.04-29.97c.1-.24.37-.36.61-.26.24.1.36.37.26.61l-11.91,29.66,24.07-27.58c.17-.2.47-.22.66-.04.2.17.22.47.04.66l-23.57,27,35.24-23.54c.22-.14.51-.09.65.13s.09.51-.13.65l-34.54,23.07,45.96-18.07c.24-.09.52.02.61.27.09.24-.02.52-.27.61l-44.96,17.68,55.49-11.38c.25-.05.5.11.56.37.05.25-.11.5-.37.56l-54.64,11.2,64.46-3.44c.26-.01.48.19.49.45.01.26-.19.48-.45.49l-63.44,3.38,72.01,5.43c.26.02.45.25.44.51-.02.26-.25.45-.51.44l-71.35-5.38,78.81,15.42c.26.05.42.3.37.55-.05.26-.3.42-.55.37l-78-15.26,83.98,25.98c.25.08.39.34.31.59-.08.25-.34.39-.59.31l-83.58-25.86,88.16,37.47c.24.1.35.38.25.62-.1.24-.38.35-.62.25l-87.53-37.21,90.48,49.08c.23.12.31.41.19.64-.12.23-.41.31-.64.19l-90.27-48.97,91.63,61.34c.22.14.27.44.13.65-.14.22-.44.27-.65.13l-91.2-61.05,90.91,73.24c.2.16.23.46.07.66-.16.2-.46.23-.66.07l-90.83-73.17,88.88,85.41c.19.18.19.48.01.67-.18.19-.48.19-.67.01l-88.56-85.1,85.08,96.74c.17.2.15.49-.04.67-.2.17-.49.15-.67-.04l-85.07-96.74,79.97,107.99c.15.21.11.5-.1.66-.21.15-.5.11-.66-.1l-79.76-107.7,73.33,117.96c.14.22.07.51-.15.65-.22.14-.51.07-.65-.15l-73.37-118.02,65.49,127.49c.12.23.03.51-.2.63-.23.12-.51.03-.63-.2l-65.34-127.2,56.45,135.37c.1.24-.01.52-.25.62-.24.1-.52-.01-.62-.25l-56.49-135.46,46.4,142.47c.08.25-.05.51-.3.59s-.51-.06-.59-.3l-46.31-142.23,35.59,147.72c.06.25-.1.51-.35.57-.25.06-.51-.1-.57-.35l-35.63-147.87,24.05,151.94c.04.26-.13.5-.39.54-.26.04-.5-.13-.54-.39l-24.01-151.69,12.22,154.11c.02.26-.17.49-.43.51-.26.02-.49-.17-.51-.43l-12.23-154.29v155.12c0,.26-.21.47-.47.47s-.47-.21-.47-.47V105.5l-12,154.1c-.02.26-.25.45-.51.44-.26-.02-.45-.25-.44-.51l12.02-154.36-24.04,151.9c-.04.26-.28.43-.54.39-.26-.04-.43-.28-.39-.54l24.01-151.74-35.38,147.76c-.06.25-.31.41-.57.35-.25-.06-.41-.31-.35-.57l35.44-148-46.38,142.42c-.08.25-.35.38-.59.3-.25-.08-.38-.35-.3-.59l46.33-142.28-56.24,135.4c-.1.24-.38.35-.62.25s-.35-.38-.25-.62l56.36-135.69-65.44,127.39c-.12.23-.4.32-.63.2-.23-.12-.32-.4-.2-.63l65.4-127.32-73.14,118.03c-.14.22-.43.29-.65.15-.22-.14-.29-.43-.15-.65l73.32-118.32-79.88,107.87c-.15.21-.45.25-.66.1-.21-.15-.25-.45-.1-.66l79.86-107.84-84.88,96.8c-.17.2-.47.22-.66.04-.2-.17-.22-.47-.04-.66l85.14-97.1-88.71,85.25c-.19.18-.49.17-.67-.01-.18-.19-.17-.49.01-.67l88.74-85.28-90.66,73.26c-.2.16-.5.13-.66-.07-.16-.2-.13-.5.07-.66l91.04-73.57-91.35,61.15c-.22.14-.51.09-.65-.13-.14-.22-.09-.51.13-.65l91.49-61.25-90.17,49.1c-.23.12-.51.04-.64-.19s-.04-.51.19-.64l90.68-49.39-87.71,37.28c-.24.1-.52,0-.62-.25-.1-.24,0-.52.25-.62l88-37.4-83.51,26c-.25.08-.51-.06-.59-.31s.06-.51.31-.59l84.21-26.22-78.14,15.29c-.26.05-.5-.12-.55-.37-.05-.26.12-.5.37-.55l78.67-15.39-71.34,5.53c-.26.02-.49-.18-.51-.44-.02-.26.18-.49.44-.51l72.27-5.6-63.56-3.39c-.26-.01-.46-.23-.45-.49.01-.26.23-.46.49-.45l64.34,3.43-54.7-11.06c-.25-.05-.42-.3-.37-.55.05-.25.3-.42.55-.37l55.75,11.27-45.04-17.71c-.24-.09-.36-.37-.27-.61.09-.24.37-.36.61-.27l45.87,18.04-34.67-22.95c-.22-.14-.28-.44-.13-.65.14-.22.44-.28.65-.13l35.49,23.49-23.6-27.04c-.17-.2-.15-.49.04-.66.2-.17.49-.15.66.04l24.04,27.54-12.1-29.59c-.1-.24.02-.51.26-.61.24-.1.51.02.61.26l12.27,29.99v-30.68h0ZM160.56,92.5c-.07.04-.14.06-.22.06s-.16-.02-.23-.06c-.03.02-.06.04-.1.06-.11.05-.24.04-.34,0h-.01c-.12.12-.28.15-.42.11-.1.13-.26.19-.41.17-.08.14-.23.22-.39.22-.06.15-.2.25-.35.27-.05.15-.17.27-.32.32-.02.16-.13.29-.27.36,0,.16-.09.31-.23.39.02.16-.05.32-.17.42.04.16-.01.32-.12.43.06.15.03.32-.06.44.08.14.07.31,0,.45.1.13.12.3.06.45.11.12.15.28.11.43h.02c.12.12.17.27.16.41.01,0,.02.01.03.02.12.09.19.23.19.37.02,0,.04.02.06.03.12.07.2.19.22.32.03,0,.05.02.08.03.12.06.2.17.24.29.04,0,.07.02.11.03.11.05.2.14.25.24.04,0,.09,0,.13.02.11.04.2.11.26.2.05,0,.11,0,.16.01.1.02.19.08.25.16.06-.01.12-.02.18,0,.1.02.18.06.25.12.06-.03.13-.04.21-.03.09,0,.17.04.24.09.07-.04.14-.06.22-.06s.16.02.23.06c.07-.05.15-.08.24-.09.07,0,.14,0,.2.03.07-.06.15-.11.25-.12.06-.01.13,0,.19,0,.06-.08.15-.14.26-.16.05-.01.1-.02.15-.01.06-.09.14-.16.26-.2.04-.01.09-.02.13-.02.05-.11.13-.2.25-.25.03-.01.07-.02.11-.03.04-.12.12-.22.24-.28.03-.01.05-.02.08-.03.02-.13.1-.25.22-.33.02-.01.04-.02.06-.03,0-.14.07-.27.19-.36.01,0,.02-.02.04-.02-.02-.15.04-.3.16-.41h.01c-.03-.16,0-.32.12-.44-.06-.14-.04-.31.06-.45-.07-.14-.08-.31,0-.45-.09-.13-.12-.29-.06-.45-.11-.11-.15-.28-.11-.43-.12-.1-.19-.25-.17-.41-.13-.08-.22-.23-.22-.39-.14-.06-.25-.2-.28-.36-.15-.05-.27-.17-.32-.32-.16-.02-.29-.13-.36-.27-.16,0-.3-.09-.39-.23-.15.02-.31-.04-.41-.17-.14.03-.3,0-.42-.1h-.02c-.11.03-.23.03-.35-.02-.04-.01-.07-.03-.1-.05Z"/>
      <g>
        <polygon class="cls-3" points="160.34 20.62 162.37 26.9 168.97 26.89 163.62 30.76 165.68 37.04 160.34 33.14 155.01 37.04 157.06 30.76 151.71 26.89 158.31 26.9 160.34 20.62"/>
        <g>
          <polygon class="cls-3" points="139.93 26.14 141.29 30.36 145.73 30.35 142.13 32.94 143.51 37.16 139.93 34.55 136.35 37.16 137.73 32.94 134.14 30.35 138.57 30.36 139.93 26.14"/>
          <polygon class="cls-3" points="180.75 26.14 182.11 30.36 186.54 30.35 182.95 32.94 184.33 37.16 180.75 34.55 177.17 37.16 178.55 32.94 174.96 30.35 179.39 30.36 180.75 26.14"/>
        </g>
      </g>
      <path class="cls-2" d="M147.69,289.95c-4.11-.38-8.16-.95-12.14-1.71-6.17-4.03-6.81-14.19-21.8-18.44,2.94,3.02,4.36,7.7,6.68,11.16,3.08,4.61,6.64,4.03,12.35,6.71-4.55-.97-9-2.18-13.36-3.61-5.44-5.13-6.14-15.27-20.12-21.14,2.7,3.48,3.68,7.99,5.73,11.83,2.58,4.84,6.24,5.2,11.31,8.24-4.12-1.47-8.15-3.15-12.06-5.02-5.12-5.66-3.86-15.96-17.5-24.08,2.27,3.79,2.74,8.85,4.32,12.93,2.09,5.39,5.62,5.76,10.59,9.88-4.34-2.2-8.55-4.63-12.59-7.29-4.19-6.48-1.51-16.49-13.66-26.85,1.63,4.13,1.12,8.93,2.03,13.22,1.22,5.8,5.14,6.99,9.55,12.23-3.83-2.62-7.51-5.44-11.02-8.45-3.66-6.92.09-16.86-11.08-28.51,1.22,4.28.57,9.47,1.06,13.83.66,5.88,4.15,7.29,8,12.91-3.48-3.1-6.8-6.39-9.93-9.85-.12-.13-.24-.27-.36-.4-2.59-7.32,2.16-16.59-7.35-29.53.67,4.41-.52,9.63-.59,14.02-.09,5.82,3.03,7.57,6.07,13.37-3.13-3.64-6.06-7.45-8.77-11.43-1.47-7.38,4.58-15.44-3.05-29.21.07,4.38-2.03,8.91-2.69,13.17-.87,5.58,1.91,7.72,4.12,13.61-2.48-3.81-4.77-7.77-6.85-11.84-.52-7.41,6.39-14.58.5-29.01-.46,4.31-3.09,8.5-4.26,12.61-1.52,5.31.9,7.75,2.39,13.65-2-4.16-3.79-8.44-5.35-12.84.52-7.24,8.37-13.21,4.56-27.98-1.06,4.1-4.25,7.79-5.99,11.6-2.25,4.93-.18,7.64.46,13.58-1.41-4.27-2.61-8.63-3.58-13.09,1.37-7.31,9.85-12.5,7.79-27.99-1.53,4.06-5.13,7.45-7.3,11.13-2.8,4.75-1.09,7.73-1.12,13.79-.86-4.47-1.49-9.03-1.88-13.65,2.35-7.1,11.51-11.03,11.63-26.75-2.08,3.82-6.12,6.67-8.78,10.02-3.47,4.37-2.13,7.61-3.07,13.78-.17-2.76-.27-5.53-.27-8.33,0-1.96.06-3.91.14-5.84,3.33-6.76,12.78-9.58,14.92-25.38-2.56,3.59-6.58,5.67-9.65,8.7-3.95,3.9-3.39,7.53-5.09,13.54.29-4.3.79-8.54,1.49-12.72,3.91-6.88,14.16-8.14,18.46-24.1-3,3.26-7.25,4.85-10.69,7.5-4.72,3.64-4.29,7.59-7.33,14.07.94-5.05,2.17-9.99,3.67-14.81,4.84-5.65,13.93-5.05,20.37-19.67-3.5,2.74-6.59,2.89-10.45,4.98-5.16,2.78-5.41,6.55-9.08,12.15,1.5-4.49,3.24-8.87,5.2-13.13,5.49-4.9,14.15-3,22.42-16.61-4.75,2.79-8.65,1.36-13.17,4.57-3.19,2.26-4.61,5.65-8.18,9.74,2.07-4.27,4.36-8.4,6.86-12.39,5.84-4.19,14.22-1.67,22.73-13.51-4.89,2.32-8.24.22-12.96,2.98-3.12,1.82-4.67,4.46-8.01,7.8.22-.33.43-.68.65-1.01,2.17-3.21,4.49-6.3,6.93-9.3,6.04-3.17,14.3.01,23.49-10.04-4.83,1.61-8.63-.68-13.34,1.36-3.05,1.32-4.79,3.55-8.14,6.23,2.65-3.11,5.46-6.07,8.39-8.91,6.18-2.28,14.01,1.77,23.85-6.76-4.82.96-8.5-1.72-13.25-.33-3.02.88-4.9,2.77-8.28,4.89,2.87-2.65,5.86-5.16,8.95-7.55,6.34-1.53,13.57,3.46,24.31-4.08-4.89.42-8.19-2.65-13.05-1.8-3.04.54-5.08,2.15-8.54,3.85,3.03-2.21,6.16-4.29,9.38-6.23,6.06-.73,12.39,4.52,23.08-1.5-4.64-.07-7.65-3.11-12.3-2.77-2.74.2-4.62,1.29-7.64,2.44,3.11-1.76,6.31-3.39,9.57-4.89,3.74-.64,7.91-.52,11.03-.99,4.84-.72,6.49-5.68,10.48-6.82-11.76-1.84-15.25.08-23.46,7.23-1.71.81-3.4,1.65-5.07,2.53,4.56-3.89,3.65-6.44,7.78-14.15-14.04,6.2-11.75,12.94-14.8,18.16-1.65,1.01-3.28,2.05-4.88,3.13,4.14-4.43,3.02-7.08,6.52-15.49-14.17,8.04-11.03,14.89-13.74,20.72-1.53,1.19-3.03,2.4-4.5,3.66,3.59-4.89,2.44-7.7,5.02-16.35-13.24,9.55-9.71,16.41-11.82,22.56-1.41,1.38-2.79,2.78-4.13,4.22,3.13-5.46,1.66-8.2,3.38-17.39-12.55,11.52-8.19,18.09-9.7,24.68-1.21,1.51-2.4,3.03-3.55,4.59,2.62-6.14.75-8.84,1.44-18.72-11.84,13.77-6.42,20.13-7.23,27.27-.72,1.16-1.42,2.34-2.11,3.52,1.21-5.33-.7-8.19-.98-16.99-10.68,14.81-4.63,20.85-4.72,28.04-.64,1.4-1.26,2.81-1.85,4.23.55-5.52-1.74-8.07-3.17-16.81-8.64,16.05-1.91,21.24-1.04,28.34-.5,1.6-.97,3.22-1.4,4.85-.24-5.58-2.78-7.85-5.34-16.41-6.01,17.05.77,21.49,2.75,28.28-.33,1.93-.62,3.87-.87,5.82-.74-6.47-3.69-8.08-7.59-16.83-3.89,18.17,4,21.43,6.62,28.33-.07,1.76-.11,3.54-.11,5.32,0,.06,0,.12,0,.18-1.59-5.86-4.69-7.13-9.56-14.94-1.54,17.98,6.56,20.19,10.08,26.41.18,2.09.41,4.17.69,6.23-2.4-6.04-5.67-6.69-11.76-13.91.97,17.99,9.33,18.98,13.67,24.66.4,1.8.83,3.59,1.3,5.37-3.03-5.36-6.38-5.96-13.1-12.13,3,17.28,11.44,17.69,16.41,22.74.74,2.06,1.52,4.09,2.35,6.1-4.1-5.48-7.78-5.28-15.6-10.77,5.47,17.13,14.39,16.08,20.11,20.48.84,1.64,1.72,3.26,2.63,4.86-4.6-4.65-8.25-4.1-16.49-8.53,7.49,16.44,16.19,14.32,22.4,17.98,1.09,1.59,2.22,3.16,3.38,4.7-5.09-3.88-8.65-2.92-17.32-6.23,9.68,15.55,17.99,12.3,24.65,15.12.09.1.18.21.28.32,1.42,1.57,2.87,3.09,4.36,4.59-6.3-3.64-9.58-1.64-19.09-3.88,12.13,13.94,19.77,9.19,26.65,10.88,1.21,1.04,2.44,2.06,3.69,3.05-5.37-1.95-8.67,0-17.48-1.13,12.65,12.2,20.08,7.03,27.19,8.16,2.3,1.51,4.64,2.95,7.03,4.31-8.14-2.46-10.09.64-19.95.99,14.57,10.12,21.11,3.5,28.32,3.38,2.17,1.03,4.37,2.01,6.6,2.92-7.16-1.07-9.12,2.46-18.89,4.16,17.23,7.64,21.35.05,28.53-.64,1.74.56,3.51,1.08,5.28,1.56-6.62.14-8.3,3.72-17.65,6.59,17.23,4.98,20.81-2.37,27.48-4.3,4.1.78,8.26,1.38,12.49,1.77.37.03.7-.24.73-.61.03-.37-.24-.7-.61-.74Z"/>
      <path class="cls-2" d="M300.44,182.12c-6.73,6.17-10.07,6.77-13.1,12.13.47-1.77.9-3.56,1.3-5.37,4.34-5.67,12.7-6.67,13.67-24.66-6.1,7.22-9.36,7.87-11.76,13.91.28-2.06.51-4.14.69-6.23,3.52-6.23,11.62-8.44,10.08-26.41-4.88,7.8-7.98,9.08-9.56,14.94,0-.06,0-.12,0-.18,0-1.78-.04-3.55-.11-5.32,2.62-6.9,10.51-10.17,6.62-28.33-3.9,8.75-6.85,10.37-7.59,16.83-.25-1.95-.54-3.89-.87-5.82,1.98-6.79,8.76-11.23,2.75-28.28-2.56,8.56-5.1,10.83-5.34,16.41-.44-1.63-.91-3.24-1.4-4.85.87-7.1,7.6-12.29-1.04-28.34-1.43,8.74-3.72,11.29-3.17,16.81-.59-1.42-1.21-2.83-1.85-4.23-.09-7.19,5.96-13.24-4.72-28.04-.28,8.8-2.19,11.67-.98,16.99-.69-1.19-1.39-2.36-2.11-3.52-.82-7.14,4.6-13.5-7.23-27.27.69,9.88-1.18,12.58,1.44,18.72-1.15-1.56-2.34-3.08-3.55-4.59-1.51-6.59,2.84-13.16-9.7-24.68,1.71,9.19.25,11.92,3.38,17.39-1.34-1.44-2.72-2.84-4.13-4.22-2.11-6.15,1.42-13.01-11.82-22.56,2.58,8.65,1.43,11.46,5.02,16.35-1.47-1.25-2.97-2.47-4.5-3.66-2.71-5.83.43-12.68-13.74-20.72,3.5,8.41,2.38,11.06,6.52,15.49-1.6-1.08-3.23-2.12-4.88-3.13-3.05-5.23-.76-11.96-14.8-18.16,4.13,7.72,3.22,10.27,7.78,14.15-1.67-.88-3.36-1.72-5.07-2.53-8.21-7.14-11.7-9.07-23.46-7.23,4,1.14,5.65,6.1,10.48,6.82,3.11.46,7.28.34,11.03.99,3.27,1.5,6.46,3.14,9.57,4.89-3.02-1.15-4.91-2.24-7.64-2.44-4.65-.34-7.66,2.7-12.3,2.77,10.7,6.02,17.03.77,23.08,1.5,3.22,1.94,6.35,4.02,9.38,6.23-3.46-1.7-5.5-3.31-8.54-3.85-4.86-.85-8.16,2.22-13.05,1.8,10.74,7.54,17.96,2.55,24.31,4.08,3.1,2.38,6.08,4.9,8.95,7.55-3.38-2.12-5.26-4-8.28-4.89-4.74-1.39-8.43,1.3-13.25.33,9.84,8.53,17.68,4.48,23.85,6.76,2.93,2.84,5.74,5.81,8.39,8.91-3.35-2.68-5.08-4.9-8.14-6.23-4.71-2.04-8.51.25-13.34-1.36,9.19,10.05,17.45,6.87,23.49,10.04,2.44,3,4.76,6.09,6.93,9.3.22.33.43.67.65,1.01-3.34-3.34-4.89-5.98-8.01-7.8-4.71-2.76-8.06-.66-12.96-2.98,8.51,11.83,16.9,9.32,22.73,13.51,2.5,3.99,4.79,8.13,6.86,12.39-3.56-4.09-4.99-7.48-8.18-9.74-4.52-3.21-8.43-1.78-13.17-4.57,8.27,13.61,16.93,11.71,22.42,16.61,1.96,4.26,3.7,8.64,5.2,13.13-3.67-5.6-3.92-9.36-9.08-12.15-3.86-2.08-6.95-2.23-10.45-4.98,6.44,14.61,15.54,14.02,20.37,19.67,1.5,4.82,2.73,9.77,3.67,14.81-3.04-6.48-2.61-10.43-7.33-14.07-3.44-2.65-7.69-4.24-10.69-7.5,4.29,15.96,14.55,17.22,18.46,24.1.7,4.18,1.2,8.42,1.49,12.72-1.7-6.01-1.14-9.64-5.09-13.54-3.07-3.04-7.09-5.11-9.65-8.7,2.14,15.8,11.59,18.62,14.92,25.38.09,1.94.14,3.88.14,5.84,0,2.8-.1,5.57-.27,8.33-.94-6.17.4-9.4-3.07-13.78-2.66-3.35-6.69-6.21-8.78-10.02.12,15.72,9.28,19.65,11.63,26.75-.39,4.62-1.02,9.18-1.88,13.65-.03-6.06,1.67-9.05-1.12-13.79-2.17-3.68-5.77-7.07-7.3-11.13-2.06,15.49,6.43,20.67,7.79,27.99-.97,4.45-2.17,8.82-3.58,13.09.64-5.94,2.71-8.64.46-13.58-1.74-3.81-4.93-7.49-5.99-11.6-3.81,14.77,4.04,20.74,4.56,27.98-1.56,4.39-3.35,8.68-5.35,12.84,1.49-5.89,3.91-8.34,2.39-13.65-1.17-4.11-3.8-8.3-4.26-12.61-5.89,14.43,1.02,21.6.5,29.01-2.08,4.08-4.37,8.03-6.85,11.84,2.21-5.89,4.99-8.03,4.12-13.61-.66-4.26-2.76-8.79-2.69-13.17-7.62,13.77-1.57,21.83-3.05,29.21-2.72,3.97-5.65,7.79-8.77,11.43,3.04-5.8,6.16-7.56,6.07-13.37-.07-4.39-1.27-9.61-.59-14.02-9.51,12.93-4.76,22.21-7.35,29.53-.12.13-.24.27-.36.4-3.13,3.46-6.45,6.74-9.93,9.85,3.84-5.62,7.34-7.03,8-12.91.49-4.36-.17-9.55,1.06-13.83-11.16,11.65-7.42,21.59-11.08,28.51-3.52,3.01-7.2,5.83-11.02,8.45,4.42-5.24,8.33-6.43,9.55-12.23.91-4.29.39-9.09,2.03-13.22-12.15,10.36-9.48,20.37-13.66,26.85-4.05,2.66-8.25,5.09-12.59,7.29,4.97-4.12,8.5-4.49,10.59-9.88,1.58-4.08,2.05-9.13,4.32-12.93-13.64,8.13-12.37,18.42-17.5,24.08-3.92,1.87-7.94,3.54-12.06,5.02,5.07-3.04,8.73-3.4,11.31-8.24,2.05-3.85,3.03-8.35,5.73-11.83-13.99,5.86-14.69,16.01-20.12,21.14-4.36,1.43-8.81,2.65-13.36,3.61,5.71-2.69,9.26-2.11,12.35-6.71,2.32-3.46,3.74-8.14,6.68-11.16-14.99,4.25-15.63,14.41-21.8,18.44-3.99.76-8.04,1.33-12.15,1.71-.37.03-.64.36-.61.74.03.37.36.65.73.61,4.22-.39,8.39-.98,12.49-1.77,6.66,1.93,10.24,9.28,27.48,4.3-9.35-2.87-11.03-6.46-17.65-6.59,1.77-.49,3.54-1.01,5.28-1.56,7.17.69,11.29,8.28,28.53.64-9.76-1.7-11.72-5.23-18.89-4.16,2.23-.92,4.44-1.89,6.6-2.92,7.2.12,13.75,6.74,28.32-3.38-9.86-.35-11.81-3.44-19.95-.99,2.39-1.36,4.74-2.8,7.03-4.31,7.1-1.13,14.54,4.04,27.19-8.16-8.82,1.12-12.11-.81-17.48,1.13,1.25-.99,2.48-2.01,3.69-3.05,6.88-1.69,14.52,3.05,26.65-10.88-9.51,2.24-12.79.23-19.09,3.88,1.49-1.49,2.95-3.02,4.36-4.59.09-.1.19-.21.28-.32,6.65-2.82,14.97.43,24.65-15.12-8.67,3.32-12.24,2.35-17.32,6.23,1.16-1.54,2.29-3.11,3.38-4.7,6.21-3.66,14.91-1.54,22.4-17.98-8.25,4.43-11.9,3.88-16.49,8.53.91-1.6,1.78-3.22,2.63-4.86,5.72-4.4,14.64-3.35,20.11-20.48-7.82,5.49-11.49,5.29-15.6,10.77.83-2.01,1.62-4.04,2.35-6.1,4.96-5.05,13.41-5.46,16.41-22.74Z"/>
      <g>
        <path class="cls-2" d="M164.87,81.93l2.14-2.51c1.36-1.6,2.11-3.63,2.11-5.73,0-4.85-3.91-8.79-8.76-8.83-.01,0-.02,0-.03,0h-.04c-4.84.03-8.74,3.99-8.74,8.83,0,2.1.75,4.13,2.11,5.73l2.14,2.51-3.22.73c-2.43.55-5.3,1.6-6.74,3.77-1.94,2.91-7.48,4.43-10.82,4.54-.44.01-.88.01-1.32-.01-.98-.05-1.94-.21-2.89-.44-2.53-.61-4.89-1.66-7.35-2.49-2.97-1.01-5.96-1.67-9.11-1.57-2.95.1-5.46,1.09-7.98,2.58l-2.29,1.35-.66-2.58c-.16-.63-.42-1.23-.77-1.78-1.51-2.36-4.22-3.22-6.91-3.02-5.79.42-8.69,6.13-6.89,11.37.68,1.97,1.97,3.58,3.75,4.64l1.24.74-19.88,90.05-.52.44c-.52.44-.75,1.06-.67,1.73,2.1,18.37,46.79,18.37,48.89,0,.08-.67-.15-1.29-.67-1.73l-.52-.44-19.79-89.65,1.63-.6c.59-.22,1.16-.47,1.71-.76,3.07-1.6,6.65-3.08,10.15-3.13,2.37-.04,4.4.61,6.48,1.68,2.46,1.27,4.77,2.89,7.3,4,3.47,1.53,6.94,2.02,10.7,1.59,2.09-.23,4.17-.55,6.25-.88l4.74-.74-2.82,3.88c-.76,1.05-1.16,2.29-1.16,3.59,0,3.37,2.74,6.11,6.11,6.11h2.25v4.83l-4.55,94.56-1.37.39c-1.71.49-2.89,2.06-2.89,3.84,0,.98.36,1.92,1.01,2.65l.78.88-.39,1.11c-.15.43-.22.87-.22,1.32,0,1.36.69,2.62,1.83,3.36l.97.62-.06,1.15c-.25,5.12-.78,10.25-1.68,15.3-.95,5.37-2.34,11.03-4.75,15.95-.37.75-.26,1.56.29,2.19,1.79,2.04,3.35,4.27,4.86,6.52,2.89,4.34,5.41,8.94,7.38,13.77l.45,1.1-.75.92c-1.02,1.24-1.57,2.8-1.57,4.4,0,3.84,3.11,6.95,6.95,6.95s6.95-3.11,6.95-6.95c0-1.6-.55-3.16-1.57-4.4l-.75-.92.45-1.1c1.97-4.83,4.49-9.43,7.38-13.77,1.5-2.26,3.07-4.48,4.86-6.52.55-.63.66-1.44.29-2.19-2.4-4.92-3.79-10.58-4.75-15.95-.9-5.05-1.43-10.18-1.68-15.3l-.06-1.15.97-.62c1.14-.74,1.83-2,1.83-3.36,0-.45-.08-.9-.22-1.32l-.39-1.11.78-.88c.65-.73,1.01-1.67,1.01-2.65,0-1.78-1.18-3.35-2.89-3.84l-1.37-.39-4.55-94.56v-4.83h2.25c3.37,0,6.11-2.74,6.11-6.11,0-1.29-.4-2.54-1.16-3.59l-2.82-3.88,4.74.74c2.08.33,4.16.64,6.25.88,3.76.42,7.24-.06,10.7-1.59,2.54-1.12,4.84-2.74,7.3-4,2.09-1.07,4.11-1.72,6.48-1.68,3.5.06,7.09,1.54,10.15,3.13.55.29,1.13.54,1.71.76l1.63.6-19.79,89.65-.52.44c-.52.44-.75,1.06-.67,1.73,2.1,18.37,46.79,18.37,48.89,0,.08-.67-.15-1.29-.67-1.73l-.52-.44-19.88-90.05,1.24-.74c1.79-1.07,3.08-2.68,3.75-4.64,1.8-5.24-1.1-10.94-6.89-11.37-2.69-.2-5.4.66-6.91,3.02-.35.55-.61,1.15-.77,1.78l-.66,2.58-2.29-1.35c-2.52-1.49-5.02-2.48-7.98-2.58-3.15-.1-6.14.56-9.11,1.57-2.45.83-4.82,1.88-7.35,2.49-.95.23-1.92.39-2.89.44-.44.02-.88.03-1.32.01-3.34-.11-8.88-1.62-10.82-4.54-1.44-2.17-4.31-3.22-6.74-3.77l-3.22-.73h0ZM115.71,192.84h-36.98l18.49-83.76,18.49,83.76h0ZM223.46,109.08l18.49,83.76h-36.98l18.49-83.76Z"/>
        <g>
          <path class="cls-4" d="M155.38,289.76c0,2.74,2.22,4.96,4.96,4.96s4.96-2.22,4.96-4.96-2.22-4.96-4.96-4.96-4.96,2.22-4.96,4.96Z"/>
          <g>
            <g>
              <path class="cls-4" d="M156.77,79.49c-1.93-1.21-3.22-3.35-3.22-5.8,0-3.76,3.03-6.8,6.78-6.83,0,0,.02,0,.02,0,3.75.03,6.78,3.08,6.78,6.83,0,2.45-1.29,4.59-3.22,5.8v4.55c3.23.29,7.69,1.13,9.26,3.49,2.06,3.08,8.12,5.71,13.9,5.41,6.44-.33,11.63-4.75,19.18-4.5,7.09.23,10.57,6.48,16.74,6.68,5.85.2,5.07-8.21,1.18-5.59.92,1.75-.72,2.87-2.38,2.75-4.31-.32-3.71-7.78,2.99-7.29,3.93.29,6.72,4.15,5.15,8.73-1.57,4.58-7.15,6.01-12.38,3.29-19.2-9.99-19.9,5.67-35.34,3.93-7.14-.8-9.83-1.81-17.59-2.08v5.79h4.25c2.27,0,4.12,1.84,4.12,4.12s-1.84,4.12-4.12,4.12h-4.25v6.87l4.66,96.75h2.16c1.1,0,2,.89,2,2s-.89,2-2,2h-2.16v1.97h.98c1.1,0,2,.89,2,2s-.89,2-2,2h-.86c.04,1.9.6,22.69,6.74,35.26,0,0-12.22,13.97-15.82,31.26-3.6-17.3-15.82-31.26-15.82-31.26,6.14-12.57,6.7-33.36,6.74-35.26h-.86c-1.1,0-2-.89-2-2s.89-2,2-2h.98v-1.97h-2.16c-1.1,0-2-.89-2-2s.89-2,2-2h2.16l4.66-96.75v-6.87h-4.25c-2.27,0-4.12-1.84-4.12-4.12s1.84-4.12,4.12-4.12h4.25v-5.79c-7.76.27-10.45,1.28-17.59,2.08-15.44,1.73-16.14-13.93-35.34-3.93-5.22,2.72-10.8,1.29-12.38-3.29-1.57-4.58,1.22-8.44,5.15-8.73,6.7-.49,7.3,6.97,2.99,7.29-1.66.12-3.29-1-2.38-2.75-3.89-2.62-4.67,5.79,1.18,5.59,6.17-.21,9.65-6.45,16.74-6.68,7.55-.24,12.74,4.17,19.18,4.5,5.78.3,11.85-2.33,13.9-5.41,1.57-2.36,6.03-3.2,9.26-3.49v-4.55Z"/>
              <path class="cls-1" d="M160.02,68.27c.1,0,.21,0,.31.01-1.84.88-3.13,2.97-3.13,5.41s1.29,4.53,3.13,5.41c-.1,0-.21.01-.31.01-2.79,0-5.06-2.43-5.06-5.42s2.26-5.42,5.06-5.42h0ZM226.71,86.44c-2.56-1.11-7.33-.41-5.79,3.36,0,0,.21-3.72,5.79-3.36h0ZM214.41,93.06c-11.48-9.13-19.04,3.63-32.42,1.08,12.35,5.29,19.97-8.39,32.42-1.08h0ZM93.98,86.44c2.56-1.11,7.33-.41,5.79,3.36,0,0-.21-3.72-5.79-3.36h0ZM152.62,111.38c-1.43,0-2.59-1.16-2.59-2.59s1.16-2.59,2.59-2.59h.3c.48,2.04,1.76,4.06,4.19,5.19h-4.48ZM106.27,93.06c11.48-9.13,19.04,3.63,32.42,1.08-12.35,5.29-19.97-8.39-32.42-1.08Z"/>
              <path class="cls-1" d="M160.34,100.39h-2.09v4.27h2.09v-4.27h0ZM162.35,100.39h-.92v4.27h.92v-4.27h0ZM162.35,80.93h-.92v3c.49-.07.84-.05.92-.05v-2.95h0ZM160.34,80.93h-2.09v3c1.12-.07,1.9-.05,2.09-.05v-2.95Z"/>
              <path class="cls-1" d="M158.25,114.2h2.09l-.17,102.31h-4.87l2.95-95.78v-6.53h0ZM162.35,114.2h-.92l.07,102.31h2.15l-1.31-95.78v-6.53Z"/>
              <path class="cls-1" d="M149.59,261.16s4.65,5.99,6.45,10.04l.34-44.66h-1.5c0,11.53-2.2,26.7-5.29,34.62h0ZM160.35,260.36c.97,0,1.76.79,1.76,1.76s-.79,1.76-1.76,1.76-1.76-.79-1.76-1.76.79-1.76,1.76-1.76h0ZM160.59,226.55l.14,33.54c.47.09.89.33,1.19.68l-.28-34.22h-1.05ZM160.75,264.16l.08,15.17c2.12-5.92,5.41-12.08,10.37-18.16-3.48-8.06-5.35-23.32-5.35-34.62h-2.32c0,11.66,1.37,25.5,3.18,34.33,0,0-2.88,4.59-4.65,10.15l-.11-7.58c-.3.36-.72.62-1.2.71h0ZM158.5,226.55l.98,33.7c.2-.09.41-.15.63-.18l-.26-33.52h-1.35ZM159.61,264.06l.72,19.6-.19-19.48c-.18-.02-.36-.06-.53-.12h0ZM154.86,241.99s-.17,11.27-1.7,19.18l1.45,5.14s-2.02-3.61-3.31-5.14c0,0,2.72-9.15,3.55-19.18Z"/>
            </g>
            <g>
              <g>
                <g>
                  <path class="cls-4" d="M200.99,191.74s1.72,1.03,2.41,3.09h40.12c.69-2.06,2.41-3.09,2.41-3.09-1.83,15.99-43.1,15.99-44.93,0Z"/>
                  <path class="cls-1" d="M223.73,201.8c3.25-.19,4.75-3.72,5.17-5.12h3.03c-1,2.14-3.62,5.01-8.2,5.13h0ZM223.73,201.81c6.81-.04,13.9-1.7,17.21-5.13h-7.06c-1.46,2.54-4.94,5.04-10.15,5.13h0Z"/>
                </g>
                <path class="cls-4" d="M202.76,193.59c-.08.36-.43.58-.79.5s-.58-.43-.5-.79l21.34-96.67s.01-.06.02-.09v-.02s0,0,0,0c.03-.08.08-.16.14-.22h0s0,0,0,0c.06-.06.14-.11.22-.14h0s.02,0,.02,0c.06-.02.13-.03.19-.04h0s0,0,0,0h.01s.01,0,.01,0h.01s0,0,0,0h0c.07,0,.13.02.19.04h.02s0,0,0,0c.08.03.16.08.22.14h0s0,0,0,0c.06.06.11.14.14.22h0s0,.03,0,.03c0,.03.02.06.02.09l21.34,96.67c.08.36-.15.71-.5.79-.36.08-.71-.15-.79-.5l-20.7-93.75-20.7,93.75Z"/>
              </g>
              <g>
                <g>
                  <path class="cls-4" d="M119.69,191.74s-1.72,1.03-2.41,3.09h-40.12c-.69-2.06-2.41-3.09-2.41-3.09,1.83,15.99,43.1,15.99,44.93,0Z"/>
                  <path class="cls-1" d="M96.95,201.8c-3.25-.19-4.75-3.72-5.17-5.12h-3.03c1,2.14,3.62,5.01,8.2,5.13h0ZM96.95,201.81c-6.81-.04-13.9-1.7-17.21-5.13h7.06c1.46,2.54,4.94,5.04,10.15,5.13h0Z"/>
                </g>
                <path class="cls-4" d="M119.21,193.3c.08.36-.15.71-.5.79s-.71-.15-.79-.5l-20.7-93.75-20.7,93.75c-.08.36-.43.58-.79.5s-.58-.43-.5-.79l21.34-96.67s.01-.06.02-.09v-.02s0,0,0,0c.03-.08.08-.16.14-.22h0s0,0,0,0c.06-.06.14-.11.22-.14h0s.02,0,.02,0c.06-.02.13-.03.19-.04h0s0,0,0,0h.01s.01,0,.01,0h.01s0,0,0,0h0c.07,0,.13.02.19.04h.02s0,0,0,0c.08.03.16.08.22.14h0s0,0,0,0c.06.06.11.14.14.22h0s0,.03,0,.03c0,.03.02.06.02.09l21.34,96.67Z"/>
              </g>
            </g>
          </g>
        </g>
      </g>
    </g>
  </g>
</svg>